<svg width="24" height="24" viewBox="0 0 54 52" fill="none" xmlns="http://www.w3.org/2000/svg">
<path d="M27.0009 1C27.9073 1 28.735 1.51793 29.1291 2.34463L35.8881 16.4184L50.9827 18.6694C51.8694 18.7989 52.6084 19.4263 52.8843 20.2929C53.1602 21.1594 52.9335 22.0957 52.303 22.7331L41.3564 33.7092L43.9379 49.2073C44.0857 50.1037 43.7211 51.0101 42.9822 51.5479C42.2432 52.0858 41.2776 52.1456 40.4894 51.7173L26.991 44.4264L13.5123 51.7073C12.7142 52.1356 11.7486 52.0758 11.0195 51.538C10.2904 51.0001 9.91602 50.0938 10.0638 49.1973L12.6453 33.6993L1.69875 22.7331C1.05831 22.0957 0.84155 21.1495 1.11743 20.2929C1.39331 19.4363 2.13227 18.8088 3.01903 18.6694L18.1136 16.4184L24.8726 2.34463C25.2766 1.51793 26.0944 1 27.0009 1ZM27.0009 8.86855L21.8281 19.6455C21.4833 20.3526 20.8231 20.8507 20.0447 20.9702L8.38883 22.7032L16.8524 31.1794C17.3943 31.7272 17.6505 32.5041 17.5224 33.271L15.5223 45.1933L25.8875 39.5957C26.587 39.2172 27.4245 39.2172 28.1142 39.5957L38.4794 45.1933L36.4891 33.281C36.3611 32.514 36.6074 31.7371 37.1591 31.1893L45.6227 22.7132L33.9668 20.9702C33.1983 20.8507 32.5283 20.3626 32.1834 19.6455L27.0009 8.86855Z" fill="#FFD700" stroke="#FFD700"/>
<path d="M17 32L9 23L7 21.5L19 19L27 7.5L33.5 18.5L47 22L38.5 33.5V46.5L27 40L15 45L17 32Z" fill="#FFD700" stroke="#FFD700"/>
</svg>
